<svg width="25" height="25" viewBox="0 0 25 25" fill="none" xmlns="http://www.w3.org/2000/svg">
<path fill-rule="evenodd" clip-rule="evenodd" d="M19.5247 5.62401C19.9617 5.77701 20.2537 6.18901 20.2537 6.65201V13.425C20.2537 15.318 19.5657 17.125 18.3507 18.525C17.7397 19.23 16.9667 19.779 16.1457 20.223L12.5877 22.145L9.02367 20.222C8.20167 19.778 7.42767 19.23 6.81567 18.524C5.59967 17.124 4.90967 15.316 4.90967 13.421V6.65201C4.90967 6.18901 5.20167 5.77701 5.63867 5.62401L12.2207 3.31101C12.4547 3.22901 12.7097 3.22901 12.9427 3.31101L19.5247 5.62401Z" stroke="#E946DA" stroke-width="1.5" stroke-linecap="round" stroke-linejoin="round"/>
<path d="M9.98193 12.4181L11.8739 14.3111L15.7719 10.4131" stroke="#E946DA" stroke-width="1.5" stroke-linecap="round" stroke-linejoin="round"/>
</svg>
