<svg width="40" height="40" viewBox="0 0 40 40" fill="none" xmlns="http://www.w3.org/2000/svg">
<path d="M25 25H33.3333C34.2538 25 35 24.2538 35 23.3333V6.66667C35 5.74619 34.2538 5 33.3333 5L16.6667 5C15.7462 5 15 5.74619 15 6.66667L15 15" stroke="#00A3FF" stroke-width="2.5" stroke-linecap="round" stroke-linejoin="round"/>
<path d="M6.66667 35L23.3333 35C24.2538 35 25 34.2538 25 33.3333L25 16.6667C25 15.7462 24.2538 15 23.3333 15L6.66667 15C5.74619 15 5 15.7462 5 16.6667L5 33.3333C5 34.2538 5.74619 35 6.66667 35Z" stroke="#00A3FF" stroke-width="2.5" stroke-linecap="round" stroke-linejoin="round"/>
</svg>
