<svg width="40" height="40" viewBox="0 0 40 40" fill="none" xmlns="http://www.w3.org/2000/svg">
<g id="Iconly/Light/Category">
<g id="Category">
<path id="Stroke 1" fill-rule="evenodd" clip-rule="evenodd" d="M5 10.8333C5 6.45798 5.04685 5 10.8333 5C16.6198 5 16.6667 6.45798 16.6667 10.8333C16.6667 15.2087 16.6851 16.6667 10.8333 16.6667C4.98155 16.6667 5 15.2087 5 10.8333Z" stroke="#FF3A3A" stroke-width="2.5" stroke-linecap="round" stroke-linejoin="round"/>
<path id="Stroke 3" fill-rule="evenodd" clip-rule="evenodd" d="M23.333 10.8333C23.333 6.45798 23.3799 5 29.1663 5C34.9528 5 34.9997 6.45798 34.9997 10.8333C34.9997 15.2087 35.0181 16.6667 29.1663 16.6667C23.3146 16.6667 23.333 15.2087 23.333 10.8333Z" stroke="#FF3A3A" stroke-width="2.5" stroke-linecap="round" stroke-linejoin="round"/>
<path id="Stroke 5" fill-rule="evenodd" clip-rule="evenodd" d="M5 29.1667C5 24.7914 5.04685 23.3334 10.8333 23.3334C16.6198 23.3334 16.6667 24.7914 16.6667 29.1667C16.6667 33.5421 16.6851 35 10.8333 35C4.98155 35 5 33.5421 5 29.1667Z" stroke="#FF3A3A" stroke-width="2.5" stroke-linecap="round" stroke-linejoin="round"/>
<path id="Stroke 7" fill-rule="evenodd" clip-rule="evenodd" d="M23.333 29.1667C23.333 24.7914 23.3799 23.3334 29.1663 23.3334C34.9528 23.3334 34.9997 24.7914 34.9997 29.1667C34.9997 33.5421 35.0181 35 29.1663 35C23.3146 35 23.333 33.5421 23.333 29.1667Z" stroke="#FF3A3A" stroke-width="2.5" stroke-linecap="round" stroke-linejoin="round"/>
</g>
</g>
</svg>
