<svg width="18" height="18" viewBox="0 0 18 18" fill="none" xmlns="http://www.w3.org/2000/svg">
<path fill-rule="evenodd" clip-rule="evenodd" d="M1.5 9.00434C1.5 4.86469 4.86631 1.5 9 1.5C13.1337 1.5 16.5 4.86469 16.5 9.00434C16.5 13.1353 13.1337 16.5 9 16.5C4.86631 16.5 1.5 13.1353 1.5 9.00434ZM11.7513 9.76342C11.831 9.68382 11.9323 9.56081 11.954 9.53187C12.0699 9.37991 12.1278 9.19178 12.1278 9.00437C12.1278 8.79381 12.0626 8.59844 11.9396 8.43925C11.9295 8.42917 11.9097 8.40767 11.884 8.37966C11.8358 8.32725 11.7667 8.25201 11.7007 8.18599C11.107 7.54923 9.55779 6.50727 8.74698 6.18889C8.62391 6.13896 8.31262 6.0297 8.14611 6.02246C7.98685 6.02246 7.83482 6.05864 7.69003 6.131C7.50905 6.2323 7.36426 6.39149 7.28463 6.57962C7.23395 6.70987 7.15432 7.10061 7.15432 7.10784C7.07469 7.53476 7.03125 8.22941 7.03125 8.99641C7.03125 9.72796 7.07469 10.3929 7.13984 10.8271C7.14163 10.8289 7.14786 10.8599 7.15753 10.9082C7.18695 11.0548 7.24822 11.3603 7.31359 11.4856C7.47285 11.7895 7.78415 11.9776 8.11716 11.9776H8.14611C8.3633 11.9704 8.81938 11.7822 8.81938 11.775C9.58675 11.4566 11.0998 10.4653 11.7079 9.80683L11.7513 9.76342Z" fill="white"/>
</svg>
