<svg width="31" height="30" viewBox="0 0 31 30" fill="none" xmlns="http://www.w3.org/2000/svg">
<path fill-rule="evenodd" clip-rule="evenodd" d="M13.6288 0.0361896C9.8765 0.411307 6.49248 2.07795 3.97928 4.78867C1.91783 7.01219 0.629824 9.69344 0.139863 12.7814C-0.0437109 13.9383 -0.0434766 16.0519 0.140332 17.1862C0.703535 20.6618 2.28814 23.6596 4.78641 25.9759C7.00992 28.0373 9.69117 29.3253 12.7792 29.8153C13.936 29.9989 16.0496 29.9986 17.1839 29.8148C21.0659 29.1858 24.3587 27.2751 26.7526 24.2626C28.3412 22.2636 29.4007 19.8194 29.7992 17.2346C29.8638 16.8156 29.9169 16.336 29.9172 16.1687C29.9176 16.0014 29.9442 15.8482 29.9764 15.8283C30.0113 15.8068 30.035 15.4359 30.035 14.9132C30.035 14.3422 30.0145 14.047 29.9764 14.0705C29.9402 14.0929 29.9176 13.9879 29.9172 13.7956C29.9169 13.6245 29.865 13.1501 29.8019 12.7414C29.2167 8.95 27.2647 5.59 24.2603 3.20254C22.2635 1.6157 19.8379 0.563416 17.2323 0.153611C16.3678 0.0176153 14.4422 -0.04508 13.6288 0.0361896ZM13.9511 2.35849C10.7612 2.69324 8.19123 3.88961 6.03926 6.04152C4.0974 7.98338 2.88229 10.381 2.45713 13.1093C2.31322 14.0329 2.31322 15.9245 2.45713 16.8481C2.88229 19.5764 4.0974 21.974 6.03926 23.9159C7.98111 25.8578 10.3787 27.0729 13.1071 27.498C14.0306 27.6419 15.9223 27.6419 16.8458 27.498C19.5742 27.0729 21.9718 25.8578 23.9136 23.9159C25.8555 21.974 27.0706 19.5764 27.4958 16.8481C27.6397 15.9245 27.6397 14.0329 27.4958 13.1093C27.0706 10.381 25.8555 7.98338 23.9136 6.04152C21.9885 4.11648 19.5687 2.88291 16.9089 2.4707C16.3178 2.37906 14.4352 2.30764 13.9511 2.35849ZM20.3671 9.9492C20.2063 9.99431 19.3795 10.7881 16.5445 13.6189L12.9271 17.2309L11.4176 15.7313C10.5874 14.9066 9.82805 14.1912 9.73025 14.1415C9.28242 13.9142 8.7999 13.9703 8.43328 14.2922C8.19176 14.5043 8.00684 14.8643 8.00543 15.1252C8.00262 15.6336 8.02764 15.6647 10.1627 17.8077C11.555 19.2051 12.273 19.8843 12.4472 19.9687C12.7979 20.1384 13.2361 20.093 13.5824 19.8511C13.7207 19.7544 15.6169 17.887 17.7963 15.7011C22.1399 11.3444 22.009 11.4968 21.9275 10.8918C21.8293 10.162 21.1248 9.73644 20.3671 9.9492ZM0 14.9787C0 15.4782 0.00902343 15.6825 0.0199805 15.4328C0.0309961 15.1831 0.0309961 14.7743 0.0199805 14.5246C0.00902343 14.2749 0 14.4792 0 14.9787Z" fill="white"/>
</svg>
