<svg width="152" height="24" viewBox="0 0 152 24" fill="none" xmlns="http://www.w3.org/2000/svg">
<path d="M17.9184 14.3201C17.6594 14.5711 17.5404 14.9341 17.5994 15.2901L18.4884 20.2101C18.5634 20.6271 18.3874 21.0491 18.0384 21.2901C17.6964 21.5401 17.2414 21.5701 16.8684 21.3701L12.4394 19.0601C12.2854 18.9781 12.1144 18.9341 11.9394 18.9291H11.6684C11.5744 18.9431 11.4824 18.9731 11.3984 19.0191L6.96839 21.3401C6.74939 21.4501 6.50139 21.4891 6.25839 21.4501C5.66639 21.3381 5.27139 20.7741 5.36839 20.1791L6.25839 15.2591C6.31739 14.9001 6.19839 14.5351 5.93939 14.2801L2.32839 10.7801C2.02639 10.4871 1.92139 10.0471 2.05939 9.65012C2.19339 9.25412 2.53539 8.96512 2.94839 8.90012L7.91839 8.17912C8.29639 8.14012 8.62839 7.91012 8.79839 7.57012L10.9884 3.08012C11.0404 2.98012 11.1074 2.88812 11.1884 2.81012L11.2784 2.74012C11.3254 2.68812 11.3794 2.64512 11.4394 2.61012L11.5484 2.57012L11.7184 2.50012H12.1394C12.5154 2.53912 12.8464 2.76412 13.0194 3.10012L15.2384 7.57012C15.3984 7.89712 15.7094 8.12412 16.0684 8.17912L21.0384 8.90012C21.4584 8.96012 21.8094 9.25012 21.9484 9.65012C22.0794 10.0511 21.9664 10.4911 21.6584 10.7801L17.9184 14.3201Z" fill="#06071B"/>
<path d="M49.9184 14.3201C49.6594 14.5711 49.5404 14.9341 49.5994 15.2901L50.4884 20.2101C50.5634 20.6271 50.3874 21.0491 50.0384 21.2901C49.6964 21.5401 49.2414 21.5701 48.8684 21.3701L44.4394 19.0601C44.2854 18.9781 44.1144 18.9341 43.9394 18.9291H43.6684C43.5744 18.9431 43.4824 18.9731 43.3984 19.0191L38.9684 21.3401C38.7494 21.4501 38.5014 21.4891 38.2584 21.4501C37.6664 21.3381 37.2714 20.7741 37.3684 20.1791L38.2584 15.2591C38.3174 14.9001 38.1984 14.5351 37.9394 14.2801L34.3284 10.7801C34.0264 10.4871 33.9214 10.0471 34.0594 9.65012C34.1934 9.25412 34.5354 8.96512 34.9484 8.90012L39.9184 8.17912C40.2964 8.14012 40.6284 7.91012 40.7984 7.57012L42.9884 3.08012C43.0404 2.98012 43.1074 2.88812 43.1884 2.81012L43.2784 2.74012C43.3254 2.68812 43.3794 2.64512 43.4394 2.61012L43.5484 2.57012L43.7184 2.50012H44.1394C44.5154 2.53912 44.8464 2.76412 45.0194 3.10012L47.2384 7.57012C47.3984 7.89712 47.7094 8.12412 48.0684 8.17912L53.0384 8.90012C53.4584 8.96012 53.8094 9.25012 53.9484 9.65012C54.0794 10.0511 53.9664 10.4911 53.6584 10.7801L49.9184 14.3201Z" fill="#06071B"/>
<path d="M81.9184 14.3201C81.6594 14.5711 81.5404 14.9341 81.5994 15.2901L82.4884 20.2101C82.5634 20.6271 82.3874 21.0491 82.0384 21.2901C81.6964 21.5401 81.2414 21.5701 80.8684 21.3701L76.4394 19.0601C76.2854 18.9781 76.1144 18.9341 75.9394 18.9291H75.6684C75.5744 18.9431 75.4824 18.9731 75.3984 19.0191L70.9684 21.3401C70.7494 21.4501 70.5014 21.4891 70.2584 21.4501C69.6664 21.3381 69.2714 20.7741 69.3684 20.1791L70.2584 15.2591C70.3174 14.9001 70.1984 14.5351 69.9394 14.2801L66.3284 10.7801C66.0264 10.4871 65.9214 10.0471 66.0594 9.65012C66.1934 9.25412 66.5354 8.96512 66.9484 8.90012L71.9184 8.17912C72.2964 8.14012 72.6284 7.91012 72.7984 7.57012L74.9884 3.08012C75.0404 2.98012 75.1074 2.88812 75.1884 2.81012L75.2784 2.74012C75.3254 2.68812 75.3794 2.64512 75.4394 2.61012L75.5484 2.57012L75.7184 2.50012H76.1394C76.5154 2.53912 76.8464 2.76412 77.0194 3.10012L79.2384 7.57012C79.3984 7.89712 79.7094 8.12412 80.0684 8.17912L85.0384 8.90012C85.4584 8.96012 85.8094 9.25012 85.9484 9.65012C86.0794 10.0511 85.9664 10.4911 85.6584 10.7801L81.9184 14.3201Z" fill="#06071B"/>
<path d="M113.918 14.3201C113.659 14.5711 113.54 14.9341 113.599 15.2901L114.488 20.2101C114.563 20.6271 114.387 21.0491 114.038 21.2901C113.696 21.5401 113.241 21.5701 112.868 21.3701L108.439 19.0601C108.285 18.9781 108.114 18.9341 107.939 18.9291H107.668C107.574 18.9431 107.482 18.9731 107.398 19.0191L102.968 21.3401C102.749 21.4501 102.501 21.4891 102.258 21.4501C101.666 21.3381 101.271 20.7741 101.368 20.1791L102.258 15.2591C102.317 14.9001 102.198 14.5351 101.939 14.2801L98.3284 10.7801C98.0264 10.4871 97.9214 10.0471 98.0594 9.65012C98.1934 9.25412 98.5354 8.96512 98.9484 8.90012L103.918 8.17912C104.296 8.14012 104.628 7.91012 104.798 7.57012L106.988 3.08012C107.04 2.98012 107.107 2.88812 107.188 2.81012L107.278 2.74012C107.325 2.68812 107.379 2.64512 107.439 2.61012L107.548 2.57012L107.718 2.50012H108.139C108.515 2.53912 108.846 2.76412 109.019 3.10012L111.238 7.57012C111.398 7.89712 111.709 8.12412 112.068 8.17912L117.038 8.90012C117.458 8.96012 117.809 9.25012 117.948 9.65012C118.079 10.0511 117.966 10.4911 117.658 10.7801L113.918 14.3201Z" fill="#06071B"/>
<path d="M145.918 14.3201C145.659 14.5711 145.54 14.9341 145.599 15.2901L146.488 20.2101C146.563 20.6271 146.387 21.0491 146.038 21.2901C145.696 21.5401 145.241 21.5701 144.868 21.3701L140.439 19.0601C140.285 18.9781 140.114 18.9341 139.939 18.9291H139.668C139.574 18.9431 139.482 18.9731 139.398 19.0191L134.968 21.3401C134.749 21.4501 134.501 21.4891 134.258 21.4501C133.666 21.3381 133.271 20.7741 133.368 20.1791L134.258 15.2591C134.317 14.9001 134.198 14.5351 133.939 14.2801L130.328 10.7801C130.026 10.4871 129.921 10.0471 130.059 9.65012C130.193 9.25412 130.535 8.96512 130.948 8.90012L135.918 8.17912C136.296 8.14012 136.628 7.91012 136.798 7.57012L138.988 3.08012C139.04 2.98012 139.107 2.88812 139.188 2.81012L139.278 2.74012C139.325 2.68812 139.379 2.64512 139.439 2.61012L139.548 2.57012L139.718 2.50012H140.139C140.515 2.53912 140.846 2.76412 141.019 3.10012L143.238 7.57012C143.398 7.89712 143.709 8.12412 144.068 8.17912L149.038 8.90012C149.458 8.96012 149.809 9.25012 149.948 9.65012C150.079 10.0511 149.966 10.4911 149.658 10.7801L145.918 14.3201Z" fill="#06071B"/>
</svg>
