<svg width="152" height="24" viewBox="0 0 152 24" fill="none" xmlns="http://www.w3.org/2000/svg">
<path d="M17.9184 14.32C17.6594 14.571 17.5404 14.934 17.5994 15.29L18.4884 20.21C18.5634 20.627 18.3874 21.049 18.0384 21.29C17.6964 21.54 17.2414 21.57 16.8684 21.37L12.4394 19.06C12.2854 18.978 12.1144 18.934 11.9394 18.929H11.6684C11.5744 18.943 11.4824 18.973 11.3984 19.019L6.96839 21.34C6.74939 21.45 6.50139 21.489 6.25839 21.45C5.66639 21.338 5.27139 20.774 5.36839 20.179L6.25839 15.259C6.31739 14.9 6.19839 14.535 5.93939 14.28L2.32839 10.78C2.02639 10.487 1.92139 10.047 2.05939 9.65C2.19339 9.254 2.53539 8.965 2.94839 8.9L7.91839 8.179C8.29639 8.14 8.62839 7.91 8.79839 7.57L10.9884 3.08C11.0404 2.98 11.1074 2.888 11.1884 2.81L11.2784 2.74C11.3254 2.688 11.3794 2.645 11.4394 2.61L11.5484 2.57L11.7184 2.5H12.1394C12.5154 2.539 12.8464 2.764 13.0194 3.1L15.2384 7.57C15.3984 7.897 15.7094 8.124 16.0684 8.179L21.0384 8.9C21.4584 8.96 21.8094 9.25 21.9484 9.65C22.0794 10.051 21.9664 10.491 21.6584 10.78L17.9184 14.32Z" fill="#FFA800"/>
<path d="M49.9184 14.32C49.6594 14.571 49.5404 14.934 49.5994 15.29L50.4884 20.21C50.5634 20.627 50.3874 21.049 50.0384 21.29C49.6964 21.54 49.2414 21.57 48.8684 21.37L44.4394 19.06C44.2854 18.978 44.1144 18.934 43.9394 18.929H43.6684C43.5744 18.943 43.4824 18.973 43.3984 19.019L38.9684 21.34C38.7494 21.45 38.5014 21.489 38.2584 21.45C37.6664 21.338 37.2714 20.774 37.3684 20.179L38.2584 15.259C38.3174 14.9 38.1984 14.535 37.9394 14.28L34.3284 10.78C34.0264 10.487 33.9214 10.047 34.0594 9.65C34.1934 9.254 34.5354 8.965 34.9484 8.9L39.9184 8.179C40.2964 8.14 40.6284 7.91 40.7984 7.57L42.9884 3.08C43.0404 2.98 43.1074 2.888 43.1884 2.81L43.2784 2.74C43.3254 2.688 43.3794 2.645 43.4394 2.61L43.5484 2.57L43.7184 2.5H44.1394C44.5154 2.539 44.8464 2.764 45.0194 3.1L47.2384 7.57C47.3984 7.897 47.7094 8.124 48.0684 8.179L53.0384 8.9C53.4584 8.96 53.8094 9.25 53.9484 9.65C54.0794 10.051 53.9664 10.491 53.6584 10.78L49.9184 14.32Z" fill="#FFA800"/>
<path d="M81.9184 14.32C81.6594 14.571 81.5404 14.934 81.5994 15.29L82.4884 20.21C82.5634 20.627 82.3874 21.049 82.0384 21.29C81.6964 21.54 81.2414 21.57 80.8684 21.37L76.4394 19.06C76.2854 18.978 76.1144 18.934 75.9394 18.929H75.6684C75.5744 18.943 75.4824 18.973 75.3984 19.019L70.9684 21.34C70.7494 21.45 70.5014 21.489 70.2584 21.45C69.6664 21.338 69.2714 20.774 69.3684 20.179L70.2584 15.259C70.3174 14.9 70.1984 14.535 69.9394 14.28L66.3284 10.78C66.0264 10.487 65.9214 10.047 66.0594 9.65C66.1934 9.254 66.5354 8.965 66.9484 8.9L71.9184 8.179C72.2964 8.14 72.6284 7.91 72.7984 7.57L74.9884 3.08C75.0404 2.98 75.1074 2.888 75.1884 2.81L75.2784 2.74C75.3254 2.688 75.3794 2.645 75.4394 2.61L75.5484 2.57L75.7184 2.5H76.1394C76.5154 2.539 76.8464 2.764 77.0194 3.1L79.2384 7.57C79.3984 7.897 79.7094 8.124 80.0684 8.179L85.0384 8.9C85.4584 8.96 85.8094 9.25 85.9484 9.65C86.0794 10.051 85.9664 10.491 85.6584 10.78L81.9184 14.32Z" fill="#FFA800"/>
<path d="M113.918 14.32C113.659 14.571 113.54 14.934 113.599 15.29L114.488 20.21C114.563 20.627 114.387 21.049 114.038 21.29C113.696 21.54 113.241 21.57 112.868 21.37L108.439 19.06C108.285 18.978 108.114 18.934 107.939 18.929H107.668C107.574 18.943 107.482 18.973 107.398 19.019L102.968 21.34C102.749 21.45 102.501 21.489 102.258 21.45C101.666 21.338 101.271 20.774 101.368 20.179L102.258 15.259C102.317 14.9 102.198 14.535 101.939 14.28L98.3284 10.78C98.0264 10.487 97.9214 10.047 98.0594 9.65C98.1934 9.254 98.5354 8.965 98.9484 8.9L103.918 8.179C104.296 8.14 104.628 7.91 104.798 7.57L106.988 3.08C107.04 2.98 107.107 2.888 107.188 2.81L107.278 2.74C107.325 2.688 107.379 2.645 107.439 2.61L107.548 2.57L107.718 2.5H108.139C108.515 2.539 108.846 2.764 109.019 3.1L111.238 7.57C111.398 7.897 111.709 8.124 112.068 8.179L117.038 8.9C117.458 8.96 117.809 9.25 117.948 9.65C118.079 10.051 117.966 10.491 117.658 10.78L113.918 14.32Z" fill="#FFA800"/>
<path d="M145.918 14.32C145.659 14.571 145.54 14.934 145.599 15.29L146.488 20.21C146.563 20.627 146.387 21.049 146.038 21.29C145.696 21.54 145.241 21.57 144.868 21.37L140.439 19.06C140.285 18.978 140.114 18.934 139.939 18.929H139.668C139.574 18.943 139.482 18.973 139.398 19.019L134.968 21.34C134.749 21.45 134.501 21.489 134.258 21.45C133.666 21.338 133.271 20.774 133.368 20.179L134.258 15.259C134.317 14.9 134.198 14.535 133.939 14.28L130.328 10.78C130.026 10.487 129.921 10.047 130.059 9.65C130.193 9.254 130.535 8.965 130.948 8.9L135.918 8.179C136.296 8.14 136.628 7.91 136.798 7.57L138.988 3.08C139.04 2.98 139.107 2.888 139.188 2.81L139.278 2.74C139.325 2.688 139.379 2.645 139.439 2.61L139.548 2.57L139.718 2.5H140.139C140.515 2.539 140.846 2.764 141.019 3.1L143.238 7.57C143.398 7.897 143.709 8.124 144.068 8.179L149.038 8.9C149.458 8.96 149.809 9.25 149.948 9.65C150.079 10.051 149.966 10.491 149.658 10.78L145.918 14.32Z" fill="#FFA800"/>
</svg>
